<?xml version="1.0" encoding="UTF-8"?>
<svg width="65px" height="65px" viewBox="0 0 65 65" version="1.1" xmlns="http://www.w3.org/2000/svg" xmlns:xlink="http://www.w3.org/1999/xlink">
    <!-- Generator: Sketch 51.3 (57544) - http://www.bohemiancoding.com/sketch -->
    <title>6545</title>
    <desc>Created with Sketch.</desc>
    <defs>
        <path d="M11.5,3.42 C7.5072,3.42 3.69003636,2.45933333 0.194872727,0.706666667 C3.83054545,0.567333333 7.61843636,0.494 11.5,0.494 C15.3874182,0.494 19.1753091,0.567333333 22.8168364,0.706666667 C19.3216727,2.452 15.5103636,3.42 11.5,3.42" id="path-1"></path>
        <radialGradient cx="49.9611801%" cy="123.4%" fx="49.9611801%" fy="123.4%" r="1767.98869%" gradientTransform="translate(0.499612,1.234000),scale(0.129343,1.000000),scale(1.000000,0.139722),translate(-0.499612,-1.234000)" id="radialGradient-3">
            <stop stop-color="#1C1E1F" offset="0%"></stop>
            <stop stop-color="#151616" offset="100%"></stop>
        </radialGradient>
    </defs>
    <g id="Page-1" stroke="none" stroke-width="1" fill="none" fill-rule="evenodd">
        <g id="eiphop---" transform="translate(-2212.000000, -2060.000000)">
            <g id="Group-4" transform="translate(1257.000000, 1560.000000)">
                <g id="Group-5" transform="translate(955.000000, 500.000000)">
                    <g id="6545">
                        <path d="M64,32.5 L63.9390476,33.2428571 L63.9390476,33.6761905 C63.9390476,34.3571429 63.8780952,34.9761905 63.8171429,35.5952381 L63.5733333,36.9571429 L63.512381,37.5142857 C63.4514286,38.3190476 63.2685714,39 63.207619,39.6190476 L62.9028571,40.6714286 L62.5371429,42.0333333 C62.1714286,43.2714286 61.7447619,44.447619 61.2571429,45.5619048 L61.1961905,45.6857143 L60.7085714,46.7380952 L60.16,47.852381 C59.1238095,49.8952381 57.8438095,51.8142857 56.3809524,53.547619 C55.7714286,54.1666667 55.2228571,54.847619 54.6742857,55.4047619 C48.8838095,61.2857143 40.8990476,65 32,65 C19.3828571,65 8.47238095,57.5095238 3.29142857,46.7380952 L2.74285714,45.5619048 C2.19428571,44.3857143 1.76761905,43.2095238 1.40190476,42.0333333 L1.09714286,40.6714286 C0.731428571,39.4952381 0.487619048,38.1952381 0.365714286,36.9571429 L0.182857143,35.5952381 C0.060952381,34.852381 0,34.047619 0.060952381,33.2428571 L0,32.5 L0.060952381,31.8809524 C0,31.0761905 0.060952381,30.2714286 0.182857143,29.4666667 L0.304761905,28.1666667 C0.426666667,26.8666667 0.67047619,25.6285714 1.09714286,24.3904762 L1.40190476,23.0904762 C1.76761905,21.7904762 2.19428571,20.552381 2.74285714,19.3761905 L3.29142857,18.2619048 C8.47238095,7.42857143 19.3828571,0 32,0 C40.8990476,0 48.8838095,3.65238095 54.7352381,9.53333333 C55.2838095,10.0904762 55.832381,10.7714286 56.3809524,11.3904762 C57.9047619,13.247619 59.2457143,15.1666667 60.2819048,17.2714286 L60.7695238,18.2619048 L61.3180952,19.3761905 L61.3180952,19.4380952 C61.8057143,20.6142857 62.232381,21.852381 62.5980952,23.0904762 L62.9028571,24.3904762 L63.207619,25.5047619 C63.3295238,26.1238095 63.4514286,26.8666667 63.5733333,27.6095238 L63.6342857,28.1666667 L63.8171429,29.4666667 C63.8780952,30.147619 63.9390476,30.8904762 63.9390476,31.5714286 L63.9390476,31.8809524 L64,32.5" id="Fill-4" fill="#000000"></path>
                        <polyline id="Fill-5" fill="#FFFFFE" points="65 30 55.9493671 30 52.6518987 26.5068493 45 26.5068493 45 25 53.2911392 25 56.5189873 28.5616438 64.8101266 28.5616438 65 30"></polyline>
                        <polyline id="Fill-6" fill="#FFFFFE" points="65 34 64.7462236 35.5068493 55.5468278 35.5068493 52.3111782 39 44 39 44 37.5616438 51.7401813 37.5616438 54.9758308 34 65 34"></polyline>
                        <polyline id="Fill-7" fill="#FFFFFE" points="65 32.4545455 64.9434783 33 52 33 52 32 64.9434783 32 65 32.4545455"></polyline>
                        <polyline id="Fill-8" fill="#FFFFFE" points="62 25 52.6824034 25 49.3347639 21.2962963 49 20.9259259 49.8369099 20 50.2832618 20.4320988 53.1845494 23.7037037 61.72103 23.7037037 62 25"></polyline>
                        <polyline id="Fill-9" fill="#FFFFFE" points="63 40 62.640553 41.3414634 54.5529954 41.3414634 51.3778802 44.5121951 50.8986175 45 50 44.0853659 50.4852535 43.597561 53.9539171 40 63 40"></polyline>
                        <path d="M42.5285171,40.8607595 C41.7046895,40.8607595 41.0709759,40.2278481 41.0709759,39.4683544 C41.0709759,38.7088608 41.7046895,38.0759494 42.5285171,38.0759494 C43.2889734,38.0759494 43.9226869,38.7088608 43.9226869,39.4683544 C43.9226869,40.2278481 43.2889734,40.8607595 42.5285171,40.8607595 Z M44.8098859,38.6455696 C44.5564005,37.6329114 43.6058302,37 42.5285171,37 C41.1343473,37 40,38.0759494 40,39.4683544 C40,40.8607595 41.1343473,42 42.5285171,42 C43.7325729,42 44.7528517,41.1139241 45,39.9746835 L45,39.4683544 L44.8098859,38.6455696 Z" id="Fill-10" fill="#FFFFFE"></path>
                        <path d="M49.5317259,32.875 C48.7068528,32.875 48.072335,32.25 48.072335,31.5 C48.072335,30.75 48.7068528,30.0625 49.5317259,30.0625 C50.2931472,30.0625 50.927665,30.75 50.927665,31.5 C50.927665,32.25 50.2931472,32.875 49.5317259,32.875 Z M51.8794416,30.8125 C51.6256345,29.75 50.6738579,29 49.5317259,29 C48.072335,29 47,30.125 47,31.5 C47,32.875 48.072335,34 49.5317259,34 C50.6738579,34 51.6256345,33.25 51.8794416,32.1875 L52,31.5 L51.8794416,30.8125 Z" id="Fill-11" fill="#FFFFFE"></path>
                        <polyline id="Fill-12" fill="#FFFFFE" points="64 45 62.7958237 46 58 46 58 45 64 45"></polyline>
                        <path d="M56.0714286,47.0714286 L54.9285714,46 L56.0714286,44.8571429 L57.2142857,46 L56.0714286,47.0714286 Z M57.9285714,45.4285714 L57.8571429,45.2857143 C57.6428571,44.5 56.8571429,44 56.0714286,44 C54.9285714,44 54,44.8571429 54,46 C54,47.0714286 54.9285714,48 56.0714286,48 C56.8571429,48 57.6428571,47.4285714 57.8571429,46.6428571 L57.9285714,46.5 L58,46 L57.9285714,45.4285714 Z" id="Fill-13" fill="#FFFFFE"></path>
                        <polyline id="Fill-14" fill="#FFFFFE" points="62 19 58 19 58 18 61.4545455 18 62 19"></polyline>
                        <path d="M56.0350877,20.1428571 L54.9122807,19 C54.9122807,18.3571429 55.4035088,17.8571429 56.0350877,17.8571429 C56.5964912,17.8571429 57.1578947,18.3571429 57.1578947,19 L56.0350877,20.1428571 Z M57.9298246,18.5 L57.8596491,18.3571429 C57.5789474,17.5 56.877193,17 56.0350877,17 C54.9122807,17 54,17.9285714 54,19 C54,20.1428571 54.9122807,21 56.0350877,21 C56.877193,21 57.5789474,20.4285714 57.8596491,19.6428571 L57.9298246,19.5 L58,19 L57.9298246,18.5 Z" id="Fill-15" fill="#FFFFFE"></path>
                        <path d="M44.5,26.9240506 C43.75,26.9240506 43.0625,26.2278481 43.0625,25.5316456 C43.0625,24.7088608 43.75,24.0759494 44.5,24.0759494 C45.25,24.0759494 45.875,24.7088608 45.875,25.5316456 C45.875,26.2278481 45.25,26.9240506 44.5,26.9240506 Z M46.9375,24.9620253 C46.6875,23.8227848 45.69375,23 44.5,23 C43.125,23 42,24.1392405 42,25.5316456 C42,26.8607595 43.125,28 44.5,28 C45.5625,28 46.5,27.3037975 46.8125,26.3544304 L47,25.5316456 L46.9375,24.9620253 Z" id="Fill-16" fill="#FFFFFE"></path>
                        <path d="M48.1201502,18.5316456 C48.1201502,17.7088608 48.7459324,17.0759494 49.4968711,17.0759494 C50.2478098,17.0759494 50.9361702,17.7088608 50.9361702,18.5316456 C50.9361702,19.2911392 50.2478098,19.9240506 49.4968711,19.9240506 C48.7459324,19.9240506 48.1201502,19.2911392 48.1201502,18.5316456 Z M49.4968711,16 C48.1827284,16 47,17.1392405 47,18.5316456 C47,19.9240506 48.1827284,21 49.4968711,21 L50.5607009,20.7468354 L51.6245307,19.8607595 L52,18.5316456 C52,17.1392405 50.873592,16 49.4968711,16 Z" id="Fill-17" fill="#FFFFFE"></path>
                        <path d="M50.4683544,46.875 C49.7088608,46.875 49.0759494,46.25 49.0759494,45.5 C49.0759494,44.6875 49.7088608,44.125 50.4683544,44.125 C51.2911392,44.125 51.9177215,44.6875 51.9177215,45.5 C51.9177215,46.25 51.2911392,46.875 50.4683544,46.875 Z M52.6202532,44.25 L51.6772152,43.3125 L50.4683544,43 C49.0759494,43 48,44.125 48,45.5 C48,46.875 49.0759494,48 50.4683544,48 C51.8607595,48 53,46.875 53,45.5 L52.6202532,44.25 Z" id="Fill-18" fill="#FFFFFE"></path>
                        <polyline id="Fill-19" fill="#FFFFFE" points="21 25 21 26.5068493 13.327044 26.5068493 10.1194969 30 1 30 1.12578616 28.5616438 9.55345912 28.5616438 12.7610063 25 21 25"></polyline>
                        <polyline id="Fill-20" fill="#FFFFFE" points="1 34 11.1204819 34 14.3463855 37.5616438 22 37.5616438 22 39 13.7771084 39 10.4879518 35.5068493 1.18975904 35.5068493 1 34"></polyline>
                        <polyline id="Fill-21" fill="#FFFFFE" points="13 32 13 33 0.0560344828 33 0 32.4545455 0.0560344828 32 13 32"></polyline>
                        <polyline id="Fill-22" fill="#FFFFFE" points="14 20.9259259 10.3333333 25 1 25 1.27777778 23.7037037 9.83333333 23.7037037 12.7777778 20.4320988 13.1666667 20 14 20.9259259"></polyline>
                        <polyline id="Fill-23" fill="#FFFFFE" points="14 44.0853659 13.1055046 45 12.6284404 44.5121951 9.52752294 41.3414634 1.29816514 41.3414634 1 40 10.0642202 40 13.5825688 43.597561 14 44.0853659"></polyline>
                        <path d="M23.5,40.8607595 C22.75,40.8607595 22.0625,40.2278481 22.0625,39.4683544 C22.0625,38.7088608 22.75,38.0759494 23.5,38.0759494 C24.25,38.0759494 24.875,38.7088608 24.875,39.4683544 C24.875,40.2278481 24.25,40.8607595 23.5,40.8607595 Z M23.5,37 C22.4375,37 21.5,37.6329114 21.1875,38.6455696 L21,39.4683544 L21.0625,39.9746835 C21.3125,41.1139241 22.3125,42 23.5,42 C24.875,42 26,40.8607595 26,39.4683544 C26,38.0759494 24.875,37 23.5,37 Z" id="Fill-24" fill="#FFFFFE"></path>
                        <path d="M15.5,32.875 C14.75,32.875 14.0625,32.25 14.0625,31.5 C14.0625,30.75 14.75,30.0625 15.5,30.0625 C16.25,30.0625 16.875,30.75 16.875,31.5 C16.875,32.25 16.25,32.875 15.5,32.875 Z M15.5,29 C14.375,29 13.375,29.75 13.125,30.8125 L13,31.5 L13.125,32.1875 C13.375,33.25 14.375,34 15.5,34 C16.875,34 18,32.875 18,31.5 C18,30.125 16.875,29 15.5,29 Z" id="Fill-25" fill="#FFFFFE"></path>
                        <polyline id="Fill-26" fill="#FFFFFE" points="8 45 8 46 4.54545455 46 4 45 8 45"></polyline>
                        <path d="M8,47.0714286 C7.35714286,47.0714286 6.85714286,46.5714286 6.85714286,46 C6.85714286,45.3571429 7.35714286,44.8571429 8,44.8571429 L9.14285714,46 L8,47.0714286 Z M8,44 C7.14285714,44 6.35714286,44.5 6.14285714,45.2857143 L6.07142857,45.4285714 L6,46 L6.07142857,46.5 L6.14285714,46.6428571 C6.35714286,47.4285714 7.14285714,48 8,48 C9.14285714,48 10,47.0714286 10,46 C10,44.8571429 9.14285714,44 8,44 Z" id="Fill-27" fill="#FFFFFE"></path>
                        <polyline id="Fill-28" fill="#FFFFFE" points="2 19 8 19 8 18 3.16376307 18 2 19"></polyline>
                        <path d="M8,20.1428571 C7.35714286,20.1428571 6.85714286,19.6428571 6.85714286,19 C6.85714286,18.3571429 7.35714286,17.8571429 8,17.8571429 C8.64285714,17.8571429 9.14285714,18.3571429 9.14285714,19 L8,20.1428571 Z M8,17 C7.14285714,17 6.42857143,17.5 6.14285714,18.3571429 L6.07142857,18.5 L6,19 L6.07142857,19.5 L6.14285714,19.6428571 C6.42857143,20.4285714 7.14285714,21 8,21 C9.14285714,21 10,20.1428571 10,19 C10,17.9285714 9.14285714,17 8,17 Z" id="Fill-29" fill="#FFFFFE"></path>
                        <path d="M22.5316456,26.9240506 C21.7088608,26.9240506 21.0759494,26.2278481 21.0759494,25.5316456 C21.0759494,24.7088608 21.7088608,24.0759494 22.5316456,24.0759494 C23.2911392,24.0759494 23.9240506,24.7088608 23.9240506,25.5316456 C23.9240506,26.2278481 23.2911392,26.9240506 22.5316456,26.9240506 Z M22.5316456,23 C21.2658228,23 20.2531646,23.8227848 20.0632911,24.9620253 L20,25.5316456 L20.1265823,26.3544304 C20.5063291,27.3037975 21.3924051,28 22.5316456,28 C23.9240506,28 25,26.8607595 25,25.5316456 C25,24.1392405 23.9240506,23 22.5316456,23 Z" id="Fill-30" fill="#FFFFFE"></path>
                        <path d="M15.4683544,19.9240506 C14.7088608,19.9240506 14.0759494,19.2911392 14.0759494,18.5316456 C14.0759494,17.7088608 14.7088608,17.0759494 15.4683544,17.0759494 C16.2911392,17.0759494 16.9240506,17.7088608 16.9240506,18.5316456 C16.9240506,19.2911392 16.2911392,19.9240506 15.4683544,19.9240506 Z M15.4683544,16 C14.0759494,16 13,17.1392405 13,18.5316456 L13.3797468,19.8607595 L14.3924051,20.7468354 L15.4683544,21 C16.8607595,21 18,19.9240506 18,18.5316456 C18,17.1392405 16.8607595,16 15.4683544,16 Z" id="Fill-31" fill="#FFFFFE"></path>
                        <path d="M15.5,46.875 C14.75,46.875 14.125,46.25 14.125,45.5 C14.125,44.6875 14.75,44.125 15.5,44.125 C16.25,44.125 16.9375,44.6875 16.9375,45.5 C16.9375,46.25 16.25,46.875 15.5,46.875 Z M15.5,43 L14.375,43.3125 L13.375,44.25 L13,45.5 C13,46.875 14.125,48 15.5,48 C16.875,48 18,46.875 18,45.5 C18,44.125 16.875,43 15.5,43 Z" id="Fill-32" fill="#FFFFFE"></path>
                        <g id="Group-36" transform="translate(21.000000, 61.000000)">
                            <mask id="mask-2" fill="white">
                                <use xlink:href="#path-1"></use>
                            </mask>
                            <g id="Clip-35"></g>
                            <path d="M11.5,3.42 C7.5072,3.42 3.69003636,2.45933333 0.194872727,0.706666667 C3.83054545,0.567333333 7.61843636,0.494 11.5,0.494 C15.3874182,0.494 19.1753091,0.567333333 22.8168364,0.706666667 C19.3216727,2.452 15.5103636,3.42 11.5,3.42" id="Fill-34" fill="url(#radialGradient-3)" mask="url(#mask-2)"></path>
                        </g>
                    </g>
                </g>
            </g>
        </g>
    </g>
</svg>